<svg width="20" height="18" viewBox="0 0 20 18" fill="none" xmlns="http://www.w3.org/2000/svg">
<path d="M6.46997 5.53003C6.17697 5.23703 6.17697 4.76199 6.46997 4.46899C6.76297 4.17599 7.23801 4.17599 7.53101 4.46899L9.25098 6.18896V1C9.25098 0.586 9.58698 0.25 10.001 0.25C10.415 0.25 10.751 0.586 10.751 1V6.18896L12.471 4.46899C12.764 4.17599 13.239 4.17599 13.532 4.46899C13.825 4.76199 13.825 5.23703 13.532 5.53003L10.532 8.53003C10.386 8.67603 10.194 8.75 10.002 8.75C9.81001 8.75 9.61798 8.67703 9.47198 8.53003L6.46997 5.53003ZM15 7.25C14.586 7.25 14.25 7.586 14.25 8C14.25 8.414 14.586 8.75 15 8.75C16.792 8.75 18.25 10.208 18.25 12V13C18.25 14.792 16.792 16.25 15 16.25H5C3.208 16.25 1.75 14.792 1.75 13V12C1.75 10.208 3.208 8.75 5 8.75C5.414 8.75 5.75 8.414 5.75 8C5.75 7.586 5.414 7.25 5 7.25C2.381 7.25 0.25 9.381 0.25 12V13C0.25 15.619 2.381 17.75 5 17.75H15C17.619 17.75 19.75 15.619 19.75 13V12C19.75 9.381 17.619 7.25 15 7.25ZM16 12C16 11.448 15.552 11 15 11C14.448 11 14 11.448 14 12C14 12.552 14.448 13 15 13C15.552 13 16 12.552 16 12Z" fill="#9494AC"/>
</svg>
