<svg width="20" height="20" viewBox="0 0 20 20" fill="none" xmlns="http://www.w3.org/2000/svg">
<path d="M18.3766 8.29004L16.5368 10.13C16.2437 10.423 15.7685 10.423 15.4753 10.13C15.1822 9.83801 15.1822 9.36197 15.4753 9.06897L17.3152 7.229C18.5667 5.978 18.5667 3.94094 17.3152 2.68994C16.1016 1.47694 13.9886 1.47694 12.7751 2.68994L9.41455 6.05005C9.28148 6.18305 9.18345 6.29998 9.11442 6.40698C8.15098 7.71898 8.28803 9.46297 9.41455 10.59C9.70768 10.883 9.70768 11.358 9.41455 11.651C9.26848 11.797 9.07642 11.871 8.88434 11.871C8.69225 11.871 8.50013 11.798 8.35407 11.651C6.69931 9.996 6.49923 7.43303 7.87985 5.55603C7.9819 5.39603 8.14497 5.19899 8.35407 4.98999L11.7146 1.63C12.604 0.740005 13.7876 0.25 15.0461 0.25C16.3047 0.25 17.4873 0.740005 18.3777 1.63C20.2135 3.466 20.2135 6.45304 18.3766 8.29004ZM10.5941 8.349C10.301 8.641 10.301 9.11703 10.5941 9.41003C11.4805 10.297 11.7697 11.5749 11.3435 12.7629C11.2004 13.1929 10.9413 13.603 10.5941 13.95L7.23356 17.3101C6.02001 18.5231 3.90709 18.5231 2.69354 17.3101C1.44197 16.0591 1.44197 14.022 2.69354 12.771L4.53336 10.931C4.8265 10.638 4.8265 10.163 4.53336 9.87C4.24023 9.57699 3.76498 9.57699 3.47184 9.87L1.63202 11.71C-0.204814 13.546 -0.204814 16.534 1.63202 18.37C2.52142 19.26 3.70498 19.75 4.96355 19.75C6.22212 19.75 7.40468 19.26 8.29508 18.37L11.6556 15.01C12.1668 14.499 12.551 13.886 12.7611 13.254C13.3714 11.557 12.9382 9.63198 11.6556 8.34998C11.3625 8.05598 10.8872 8.056 10.5941 8.349Z" fill="#9494AC"/>
</svg>
