<svg width="20" height="20" viewBox="0 0 20 20" fill="none" xmlns="http://www.w3.org/2000/svg">
<path d="M10 0.25C4.624 0.25 0.25 4.624 0.25 10C0.25 15.376 4.624 19.75 10 19.75C15.376 19.75 19.75 15.376 19.75 10C19.75 4.624 15.376 0.25 10 0.25ZM10 18.25C5.451 18.25 1.75 14.549 1.75 10C1.75 5.451 5.451 1.75 10 1.75C14.549 1.75 18.25 5.451 18.25 10C18.25 14.549 14.549 18.25 10 18.25ZM14.75 6C14.75 6.414 14.414 6.75 14 6.75H6C5.586 6.75 5.25 6.414 5.25 6C5.25 5.586 5.586 5.25 6 5.25H14C14.414 5.25 14.75 5.586 14.75 6ZM13.25 10C13.25 10.414 12.914 10.75 12.5 10.75H7.5C7.086 10.75 6.75 10.414 6.75 10C6.75 9.586 7.086 9.25 7.5 9.25H12.5C12.914 9.25 13.25 9.586 13.25 10ZM11.75 14C11.75 14.414 11.414 14.75 11 14.75H9C8.586 14.75 8.25 14.414 8.25 14C8.25 13.586 8.586 13.25 9 13.25H11C11.414 13.25 11.75 13.586 11.75 14Z" fill="#9494AC"/>
</svg>
